# xmcd
#
# Track frame offsets: 
#        150
#        24121
#        38407
#        56285
#        71622
#        84523
#        99782
#        120060
#        131792
#        147836
#        164042
#        177406
#
# Disc length: 2602 seconds
#
# Revision: 0
# Processed by: cddbd v1.5.2PL0 Copyright (c) Steve Scherf et al.
# Submitted via: ExactAudioCopy v0.95b3
#
DISCID=8e0a280c
DTITLE=James Taylor  - Greatest Hits  FLAC
DYEAR=1900
DGENRE=
TTITLE0=Steamroller
TTITLE1=Something In The Way She Moves
TTITLE2=Carolina In My Mind
TTITLE3=Fire And Rain
TTITLE4=Sweet Baby James
TTITLE5=Country Road
TTITLE6=You´ve Got A Friend
TTITLE7=Don´t Let Me Be Lonely Tonight
TTITLE8=Walking Man
TTITLE9=How Sweet It Is (To Be Loved By You)
TTITLE10=Mexico
TTITLE11=Shower The People
EXTD=
EXTT0=
EXTT1=
EXTT2=
EXTT3=
EXTT4=
EXTT5=
EXTT6=
EXTT7=
EXTT8=
EXTT9=
EXTT10=
EXTT11=
PLAYORDER=
